HIERARCHY
ROOT Hips
{
	OFFSET 0.000000 83.214638 0.000000
	CHANNELS 6 Xposition Yposition Zposition Xrotation Yrotation Zrotation
	JOINT Pelvis
	{
		OFFSET 0.000000 0.000000 0.000000
		CHANNELS 3 Xrotation Yrotation Zrotation
		JOINT LeftUpLeg
		{
			OFFSET 8.479700 -4.795502 -0.379100
			CHANNELS 3 Xrotation Yrotation Zrotation
			JOINT LeftLeg
			{
				OFFSET 0.024144 -32.555107 0.112900
				CHANNELS 3 Xrotation Yrotation Zrotation
				JOINT LeftFoot
				{
					OFFSET -0.024144 -32.638630 -3.012600
					CHANNELS 3 Xrotation Yrotation Zrotation
					JOINT LeftToeBase
					{
						OFFSET 0.970200 -13.225400 11.864200
						CHANNELS 3 Xrotation Yrotation Zrotation
						End Site
						{
							OFFSET 0.000000 12.319262 0.000000
						}
					}
					JOINT LFootTongue
					{
						OFFSET 1.142400 -1.059800 6.665200
						CHANNELS 3 Xrotation Yrotation Zrotation
						End Site
						{
							OFFSET 0.000000 12.319262 0.000000
						}
					}
				}
				JOINT LeftPantLeg
				{
					OFFSET 0.918482 -16.533964 -2.284700
					CHANNELS 3 Xrotation Yrotation Zrotation
					End Site
					{
						OFFSET 0.350399 24.744368 0.000000
					}
				}
			}
		}
		JOINT RightUpLeg
		{
			OFFSET -8.479700 -4.795502 -0.379100
			CHANNELS 3 Xrotation Yrotation Zrotation
			JOINT RightLeg
			{
				OFFSET -0.023144 -32.555092 0.112900
				CHANNELS 3 Xrotation Yrotation Zrotation
				JOINT RightFoot
				{
					OFFSET 0.023144 -32.638641 -3.012700
					CHANNELS 3 Xrotation Yrotation Zrotation
					JOINT RightToeBase
					{
						OFFSET -0.970200 -13.225400 11.864200
						CHANNELS 3 Xrotation Yrotation Zrotation
						End Site
						{
							OFFSET 0.000000 12.319244 0.000000
						}
					}
					JOINT RFootTongue
					{
						OFFSET -1.142200 -1.059800 6.665200
						CHANNELS 3 Xrotation Yrotation Zrotation
						End Site
						{
							OFFSET 0.000000 12.319243 0.000000
						}
					}
				}
				JOINT RightPantLeg
				{
					OFFSET -0.919482 -16.533978 -2.284800
					CHANNELS 3 Xrotation Yrotation Zrotation
					End Site
					{
						OFFSET -0.350400 24.744419 0.000000
					}
				}
			}
		}
	}
	JOINT Spine
	{
		OFFSET 0.000000 7.722000 1.166200
		CHANNELS 3 Xrotation Yrotation Zrotation
		JOINT Spine1
		{
			OFFSET 0.000000 12.024101 0.248800
			CHANNELS 3 Xrotation Yrotation Zrotation
			JOINT Spine2
			{
				OFFSET 0.000000 11.502998 -0.491200
				CHANNELS 3 Xrotation Yrotation Zrotation
				JOINT Neck
				{
					OFFSET 0.000000 18.430702 -3.123100
					CHANNELS 3 Xrotation Yrotation Zrotation
					JOINT Head
					{
						OFFSET 0.000000 9.051102 1.034000
						CHANNELS 3 Xrotation Yrotation Zrotation
						JOINT HairB
						{
							OFFSET 0.208400 24.786102 24.822300
							CHANNELS 3 Xrotation Yrotation Zrotation
							End Site
							{
								OFFSET 0.000000 32.263779 0.000000
							}
						}
						JOINT HairA
						{
							OFFSET -7.081100 24.428299 23.196600
							CHANNELS 3 Xrotation Yrotation Zrotation
							End Site
							{
								OFFSET 0.000000 32.263779 0.000000
							}
						}
						JOINT Hat
						{
							OFFSET 16.728800 15.048294 -15.439601
							CHANNELS 3 Xrotation Yrotation Zrotation
							End Site
							{
								OFFSET 0.000000 32.263779 0.000000
							}
						}
					}
				}
				JOINT LeftShoulder
				{
					OFFSET 6.197800 13.665199 -4.064700
					CHANNELS 3 Xrotation Yrotation Zrotation
					JOINT LeftArm
					{
						OFFSET 7.778100 -0.187103 -1.709300
						CHANNELS 3 Xrotation Yrotation Zrotation
						JOINT LeftForeArm
						{
							OFFSET 22.049376 0.000000 0.000000
							CHANNELS 3 Xrotation Yrotation Zrotation
							JOINT LeftHand
							{
								OFFSET 23.009392 0.000000 0.000000
								CHANNELS 3 Xrotation Yrotation Zrotation
								JOINT LeftHandThumb1
								{
									OFFSET 3.507191 -2.063065 3.133727
									CHANNELS 3 Xrotation Yrotation Zrotation
									JOINT LeftHandThumb2
									{
										OFFSET 3.101337 -1.790558 1.790558
										CHANNELS 3 Xrotation Yrotation Zrotation
										JOINT LeftHandThumb3
										{
											OFFSET 3.058640 -1.765907 1.765906
											CHANNELS 3 Xrotation Yrotation Zrotation
											End Site
											{
												OFFSET -0.415260 3.926476 -0.049563
											}
										}
									}
								}
								JOINT LeftHandIndex1
								{
									OFFSET 11.334419 -0.901459 3.706815
									CHANNELS 3 Xrotation Yrotation Zrotation
									JOINT LeftHandIndex2
									{
										OFFSET 3.283112 0.000000 0.000000
										CHANNELS 3 Xrotation Yrotation Zrotation
										JOINT LeftHandIndex3
										{
											OFFSET 3.323853 0.000000 0.000000
											CHANNELS 3 Xrotation Yrotation Zrotation
											End Site
											{
												OFFSET -1.135597 3.097809 0.402452
											}
										}
									}
								}
								JOINT LeftHandMiddle1
								{
									OFFSET 11.335861 0.000000 0.000000
									CHANNELS 3 Xrotation Yrotation Zrotation
									JOINT LeftHandMiddle2
									{
										OFFSET 3.410492 0.000000 0.000000
										CHANNELS 3 Xrotation Yrotation Zrotation
										JOINT LeftHandMiddle3
										{
											OFFSET 3.312172 0.000000 0.000000
											CHANNELS 3 Xrotation Yrotation Zrotation
											End Site
											{
												OFFSET -1.150200 3.080154 0.400270
											}
										}
									}
								}
								JOINT LeftHandRing1
								{
									OFFSET 11.514786 -0.013176 -3.003090
									CHANNELS 3 Xrotation Yrotation Zrotation
									JOINT LeftHandRing2
									{
										OFFSET 3.053307 0.000000 0.000000
										CHANNELS 3 Xrotation Yrotation Zrotation
										JOINT LeftHandRing3
										{
											OFFSET 3.295807 0.000000 0.000000
											CHANNELS 3 Xrotation Yrotation Zrotation
											End Site
											{
												OFFSET -1.281006 3.013344 0.375733
											}
										}
									}
								}
								JOINT LeftHandPinky1
								{
									OFFSET 10.518692 -0.960396 -5.730441
									CHANNELS 3 Xrotation Yrotation Zrotation
									JOINT LeftHandPinky2
									{
										OFFSET 2.861649 0.000000 0.000000
										CHANNELS 3 Xrotation Yrotation Zrotation
										JOINT LeftHandPinky3
										{
											OFFSET 2.863380 0.000000 0.000000
											CHANNELS 3 Xrotation Yrotation Zrotation
											End Site
											{
												OFFSET -0.843597 2.711159 0.369971
											}
										}
									}
								}
							}
							JOINT LSleeve
							{
								OFFSET 6.676277 -0.344902 -1.011730
								CHANNELS 3 Xrotation Yrotation Zrotation
								End Site
								{
									OFFSET 0.000000 14.885353 0.000000
								}
							}
						}
					}
				}
				JOINT RightShoulder
				{
					OFFSET -6.197800 13.665199 -4.064700
					CHANNELS 3 Xrotation Yrotation Zrotation
					JOINT RightArm
					{
						OFFSET -7.778100 -0.187103 -1.709300
						CHANNELS 3 Xrotation Yrotation Zrotation
						JOINT RightForeArm
						{
							OFFSET -22.049376 0.000000 0.000000
							CHANNELS 3 Xrotation Yrotation Zrotation
							JOINT RightHand
							{
								OFFSET -23.009392 0.000000 0.000000
								CHANNELS 3 Xrotation Yrotation Zrotation
								JOINT RightHandThumb1
								{
									OFFSET -3.507191 -2.063065 3.133727
									CHANNELS 3 Xrotation Yrotation Zrotation
									JOINT RightHandThumb2
									{
										OFFSET -3.101337 -1.790558 1.790558
										CHANNELS 3 Xrotation Yrotation Zrotation
										JOINT RightHandThumb3
										{
											OFFSET -3.058640 -1.765907 1.765906
											CHANNELS 3 Xrotation Yrotation Zrotation
											End Site
											{
												OFFSET 0.415260 3.926476 -0.049563
											}
										}
									}
								}
								JOINT RightHandIndex1
								{
									OFFSET -11.334419 -0.901459 3.706815
									CHANNELS 3 Xrotation Yrotation Zrotation
									JOINT RightHandIndex2
									{
										OFFSET -3.283112 0.000000 0.000000
										CHANNELS 3 Xrotation Yrotation Zrotation
										JOINT RightHandIndex3
										{
											OFFSET -3.323853 0.000000 0.000000
											CHANNELS 3 Xrotation Yrotation Zrotation
											End Site
											{
												OFFSET 1.135597 3.097809 0.402452
											}
										}
									}
								}
								JOINT RightHandMiddle1
								{
									OFFSET -11.335861 0.000000 0.000000
									CHANNELS 3 Xrotation Yrotation Zrotation
									JOINT RightHandMiddle2
									{
										OFFSET -3.410492 0.000000 0.000000
										CHANNELS 3 Xrotation Yrotation Zrotation
										JOINT RightHandMiddle3
										{
											OFFSET -3.312172 0.000000 0.000000
											CHANNELS 3 Xrotation Yrotation Zrotation
											End Site
											{
												OFFSET 1.150200 3.080154 0.400270
											}
										}
									}
								}
								JOINT RightHandRing1
								{
									OFFSET -11.514786 -0.013176 -3.003090
									CHANNELS 3 Xrotation Yrotation Zrotation
									JOINT RightHandRing2
									{
										OFFSET -3.053307 0.000000 0.000000
										CHANNELS 3 Xrotation Yrotation Zrotation
										JOINT RightHandRing3
										{
											OFFSET -3.295807 0.000000 0.000000
											CHANNELS 3 Xrotation Yrotation Zrotation
											End Site
											{
												OFFSET 1.281006 3.013344 0.375733
											}
										}
									}
								}
								JOINT RightHandPinky1
								{
									OFFSET -10.518692 -0.960396 -5.730441
									CHANNELS 3 Xrotation Yrotation Zrotation
									JOINT RightHandPinky2
									{
										OFFSET -2.861649 0.000000 0.000000
										CHANNELS 3 Xrotation Yrotation Zrotation
										JOINT RightHandPinky3
										{
											OFFSET -2.863380 0.000000 0.000000
											CHANNELS 3 Xrotation Yrotation Zrotation
											End Site
											{
												OFFSET 0.843597 2.711159 0.369971
											}
										}
									}
								}
							}
							JOINT RSleeve
							{
								OFFSET -6.676277 -0.344902 -1.011730
								CHANNELS 3 Xrotation Yrotation Zrotation
								End Site
								{
									OFFSET 0.000000 14.885353 0.000000
								}
							}
						}
					}
				}
				JOINT Backpack
				{
					OFFSET 0.000000 -2.471497 36.677502
					CHANNELS 3 Xrotation Yrotation Zrotation
					End Site
					{
						OFFSET 0.000000 20.427315 0.000000
					}
				}
				JOINT Hood
				{
					OFFSET 0.000000 18.754097 -10.431000
					CHANNELS 3 Xrotation Yrotation Zrotation
					JOINT Hood1
					{
						OFFSET 0.000000 -5.011002 -7.685901
						CHANNELS 3 Xrotation Yrotation Zrotation
						End Site
						{
							OFFSET 0.000000 9.175140 0.000000
						}
					}
				}
				JOINT LHoodieString
				{
					OFFSET 5.250500 16.397697 3.089900
					CHANNELS 3 Xrotation Yrotation Zrotation
					JOINT LHoodieString1
					{
						OFFSET 0.257700 -6.364304 3.694600
						CHANNELS 3 Xrotation Yrotation Zrotation
						JOINT LHoodieString2
						{
							OFFSET 0.000000 -9.643799 2.679100
							CHANNELS 3 Xrotation Yrotation Zrotation
							End Site
							{
								OFFSET 0.000000 10.009018 0.000000
							}
						}
					}
				}
				JOINT RHoodieString
				{
					OFFSET -5.250500 16.397697 3.089900
					CHANNELS 3 Xrotation Yrotation Zrotation
					JOINT RHoodieString1
					{
						OFFSET -0.257700 -6.364304 3.694600
						CHANNELS 3 Xrotation Yrotation Zrotation
						JOINT RHoodieString2
						{
							OFFSET 0.000000 -9.643799 2.679100
							CHANNELS 3 Xrotation Yrotation Zrotation
							End Site
							{
								OFFSET 0.000000 10.009018 0.000000
							}
						}
					}
				}
			}
			JOINT LBackpack_Strap
			{
				OFFSET 15.223200 -7.719803 -6.610900
				CHANNELS 3 Xrotation Yrotation Zrotation
				End Site
				{
					OFFSET 0.000000 16.040596 0.000000
				}
			}
			JOINT RBackpack_Strap
			{
				OFFSET -15.223000 -7.719803 -6.610900
				CHANNELS 3 Xrotation Yrotation Zrotation
				End Site
				{
					OFFSET 0.000000 16.040596 0.000000
				}
			}
		}
	}
	JOINT BoyFacialAnim_Joint
	{
		OFFSET 1.000000 -82.208099 -1.550900
		CHANNELS 3 Xrotation Yrotation Zrotation
		End Site
		{
			OFFSET 0.000000 30.012791 0.000000
		}
	}
}
MOTION
Frames: 5
Frame Time: 0.033333
-1.888328 79.791603 -0.738523 -16.936236 -39.114492 -9.319701 -0.000000 0.000002 0.000001 -20.968194 43.377278 27.968399 22.769730 0.475479 -0.690261 2.528177 1.284873 -3.079768 0.000000 0.000000 0.000000 0.000000 0.000000 0.000000 -0.000000 -0.000000 0.000000 4.178876 5.179868 -5.769886 30.863385 -0.336247 1.074244 -20.486560 -17.432277 4.315759 0.000000 0.000002 0.000000 0.000000 0.000002 0.000000 0.000001 -0.000004 0.000002 7.991459 -0.041843 -0.261350 16.413462 -0.125529 -0.745993 16.413503 -0.192907 -0.721095 0.367421 7.480963 0.837550 -6.982128 21.597265 11.883003 -0.000000 -0.000001 0.000001 -0.000000 -0.000001 0.000001 -0.000000 -0.000001 0.000001 -37.571064 -4.822523 1.545822 -41.628432 -7.015819 -61.684388 0.000107 -64.995800 0.000111 -119.359632 1.120110 32.550168 4.709224 9.560355 3.111996 19.473189 -1.474903 7.636914 0.000001 0.000001 -0.000000 -0.212817 3.933721 -36.747125 2.942148 5.078915 -60.144604 -0.000002 -0.000001 -0.000000 0.405913 5.507043 -52.453148 3.387140 5.308621 -65.057463 0.000001 0.000000 0.000000 -0.074378 5.736776 -61.061406 4.055024 5.569506 -72.094907 0.000001 0.000003 -0.000000 -6.565576 4.545125 -72.425215 3.299639 5.267227 -64.107828 0.000002 0.000002 0.000000 0.000001 0.000003 0.000003 -41.176287 -8.605654 -9.942308 -46.819683 58.242970 100.948686 0.000012 98.442956 -0.000003 -52.463103 -17.216602 -29.273095 8.377129 -4.904153 11.022000 21.620216 -18.183895 -18.379211 0.000000 0.000001 0.000002 -0.920043 1.683569 12.434961 0.748118 -2.533483 32.898306 0.000000 0.000000 0.000004 3.413060 -7.186279 51.650242 6.296820 -4.359574 110.634660 -0.000000 0.000001 -0.000002 -3.349043 -2.600432 57.010554 5.440843 -4.590913 99.698140 0.000001 -0.000000 0.000002 -3.996450 -3.303958 64.593843 4.058864 -4.618679 82.610523 0.000000 -0.000001 0.000000 -0.000002 0.000001 0.000001 0.000001 -0.000001 0.000002 0.000001 -0.000001 0.000002 0.000001 -0.000001 0.000002 0.000001 -0.000001 0.000002 0.000001 -0.000001 0.000001 0.000001 -0.000001 0.000001 0.000001 -0.000001 0.000002 0.000001 -0.000001 0.000001 0.000001 -0.000001 0.000001 -0.000001 0.000001 -0.000000 -0.000001 0.000001 -0.000000 -0.000000 0.000002 0.000001 
-1.824678 79.723312 -0.760655 -15.580450 -39.422961 -8.441529 -0.000000 -0.000001 -0.000000 -22.283272 43.129872 27.985889 23.262564 0.785971 -0.693089 2.343149 1.291200 -3.034415 -0.000000 0.000001 -0.000000 -0.000000 0.000001 0.000000 -0.000000 -0.000001 0.000000 2.655083 5.370648 -5.811903 31.468792 -0.312634 1.075071 -20.634285 -17.446410 4.364904 0.000000 0.000000 -0.000000 0.000000 0.000000 -0.000000 -0.000001 0.000001 0.000001 8.081254 0.121090 -0.466016 16.269138 -0.103973 -0.792326 16.268425 -0.167956 -0.765776 0.054786 7.372281 0.931272 -6.988888 21.508305 11.335234 -0.000001 -0.000000 0.000000 -0.000001 -0.000000 0.000000 -0.000001 -0.000000 0.000000 -37.091294 -4.739920 1.603645 -42.157854 -4.786018 -62.501661 -0.000020 -66.134154 -0.000021 -118.392122 1.187314 32.629296 4.705118 9.561643 3.097956 19.469027 -1.476817 7.612003 -0.000001 -0.000001 0.000002 -0.212950 3.931284 -36.714801 2.941457 5.078517 -60.136838 -0.000003 0.000000 -0.000002 0.406124 5.506954 -52.448172 3.378641 5.304662 -64.965495 -0.000003 -0.000000 -0.000002 -0.073971 5.737585 -61.069370 4.054457 5.569331 -72.089040 0.000003 -0.000002 -0.000001 -6.564764 4.547538 -72.435406 3.299646 5.267219 -64.107971 0.000001 0.000001 -0.000004 -0.000000 0.000001 0.000001 -40.821677 -8.527976 -10.529081 -47.957398 57.981305 101.487657 0.000852 98.304836 -0.000850 -51.801121 -17.701779 -28.258079 7.901538 -3.576293 11.770520 21.523777 -17.681709 -18.004922 0.000001 0.000000 -0.000001 -0.887525 2.575424 10.307003 0.729881 -2.505087 32.483280 -0.000001 -0.000000 0.000000 3.564020 -7.242826 52.968240 6.290625 -4.361891 110.553271 0.000001 0.000001 -0.000002 -3.100017 -2.829022 57.508909 5.446019 -4.590025 99.762774 -0.000000 -0.000001 0.000000 -3.656331 -3.432055 64.341311 4.028245 -4.614614 82.230212 -0.000001 -0.000001 -0.000002 0.000001 0.000004 -0.000001 -0.000001 -0.000001 0.000001 -0.000001 -0.000001 0.000001 -0.000001 -0.000001 0.000001 -0.000001 -0.000001 0.000001 -0.000001 -0.000001 0.000000 -0.000002 -0.000001 -0.000001 -0.000001 -0.000001 0.000001 -0.000001 -0.000001 0.000000 -0.000002 -0.000001 -0.000001 -0.000000 -0.000001 0.000000 -0.000000 -0.000001 0.000000 -0.000000 -0.000001 -0.000000 
-1.587242 79.629684 -0.887960 -13.754363 -39.960729 -7.348714 -0.000000 -0.000000 0.000000 -24.216852 42.757251 28.072829 23.953212 1.374528 -0.697754 2.135272 1.300130 -2.879292 0.000000 0.000000 -0.000000 0.000000 0.000000 0.000000 -0.000000 -0.000001 0.000000 0.369338 5.653623 -5.842432 32.330079 -0.112124 1.076372 -20.672667 -17.461059 4.439862 -0.000000 0.000000 -0.000000 -0.000000 0.000000 -0.000000 0.000001 0.000001 0.000000 8.463325 0.421296 -0.715769 15.878151 -0.026417 -0.847119 15.876809 -0.084071 -0.819897 -0.305022 7.177279 1.217841 -6.834737 21.812216 10.080473 -0.000002 0.000001 -0.000002 -0.000002 0.000001 -0.000002 -0.000002 0.000001 -0.000002 -35.745276 -4.501786 1.757299 -42.574242 -2.727727 -62.930091 -0.000045 -67.886077 -0.000029 -118.384991 -0.037687 31.909479 4.704239 9.563886 3.056419 19.457081 -1.483412 7.538834 -0.000003 -0.000001 0.000002 -0.214080 3.923271 -36.622822 2.939436 5.077349 -60.114039 -0.000002 0.000001 -0.000000 0.406431 5.506430 -52.434368 3.354378 5.293331 -64.702928 0.000004 0.000000 0.000000 -0.072656 5.740007 -61.092934 4.052819 5.568818 -72.072183 -0.000002 -0.000001 -0.000004 -6.562723 4.554418 -72.465309 3.299801 5.267300 -64.109679 0.000001 0.000001 -0.000003 0.000001 -0.000003 -0.000001 -39.534928 -8.372285 -10.910086 -49.127078 57.421646 101.117010 0.001446 98.038029 -0.001397 -50.418575 -18.785494 -25.693911 6.414366 -2.590672 12.216320 20.909347 -17.259149 -17.899778 -0.000000 0.000000 0.000000 -0.850502 2.999108 9.289412 0.716588 -2.484119 32.178094 -0.000001 0.000000 0.000005 3.553463 -7.206280 53.620270 6.288400 -4.362732 110.524086 -0.000000 0.000001 -0.000005 -2.876932 -3.018919 57.881721 5.445494 -4.590110 99.755814 -0.000001 -0.000000 0.000002 -3.370409 -3.571376 64.349876 3.999746 -4.610668 81.875936 -0.000000 -0.000000 0.000000 -0.000000 0.000001 0.000000 -0.000003 0.000002 -0.000001 -0.000003 0.000002 -0.000001 -0.000003 0.000002 -0.000001 -0.000003 0.000002 -0.000001 -0.000003 0.000002 -0.000002 -0.000004 -0.000001 0.000001 -0.000003 0.000002 -0.000001 -0.000003 0.000002 -0.000002 -0.000004 -0.000001 0.000001 -0.000000 -0.000001 0.000000 -0.000000 -0.000001 0.000000 -0.000000 -0.000000 0.000000 
-1.151000 79.561607 -1.160963 -11.346897 -40.675040 -6.059671 0.000000 -0.000003 -0.000000 -26.776543 42.249132 28.230560 24.519339 2.232807 -0.704211 2.102241 1.306943 -2.578586 0.000000 0.000001 -0.000000 0.000000 0.000001 0.000000 0.000000 -0.000002 -0.000000 -2.622084 5.972038 -5.729036 33.076714 0.236532 1.077457 -20.363714 -17.464543 4.528266 -0.000000 0.000002 0.000000 -0.000000 0.000002 0.000000 0.000000 -0.000000 -0.000000 9.277963 0.742415 -0.935790 15.326661 0.096421 -0.894917 15.325071 0.046367 -0.869917 -0.689079 6.929718 1.643561 -6.585721 22.582067 8.090769 -0.000000 0.000000 -0.000000 -0.000000 0.000000 -0.000000 -0.000000 0.000000 -0.000000 -33.668478 -4.116656 1.968970 -42.993421 -0.957086 -63.260488 0.000128 -70.091852 0.000133 -118.973563 -2.228601 30.489073 4.703573 9.566551 3.011535 19.443366 -1.490162 7.455962 -0.000002 -0.000001 0.000002 -0.214872 3.915011 -36.520902 2.936148 5.075490 -60.076916 0.000004 0.000001 0.000000 0.406836 5.505569 -52.412713 3.316126 5.275156 -64.287475 0.000004 0.000000 -0.000001 -0.070460 5.743975 -61.131341 4.050162 5.567947 -72.044870 0.000002 0.000000 -0.000000 -6.559493 4.565604 -72.514008 3.300084 5.267462 -64.112848 0.000001 -0.000001 -0.000000 -0.000000 -0.000002 -0.000001 -37.403554 -8.235420 -10.928947 -50.052367 56.740888 99.721158 0.000876 97.804361 -0.000858 -48.307397 -20.099765 -21.899994 4.395351 -2.391745 12.515198 19.873436 -16.905326 -17.888095 -0.000000 -0.000001 0.000001 -0.787306 3.284174 8.326908 0.704037 -2.464076 31.887414 0.000001 0.000001 0.000000 3.561965 -7.186810 54.226917 6.286325 -4.363517 110.496683 0.000000 0.000001 -0.000002 -2.734922 -3.151826 58.237738 5.444932 -4.590209 99.749080 -0.000000 -0.000000 0.000004 -3.191906 -3.659521 64.365353 3.972462 -4.606673 81.536182 0.000000 0.000001 -0.000001 0.000000 -0.000001 -0.000002 -0.000001 -0.000001 0.000000 -0.000001 -0.000001 0.000000 -0.000001 -0.000001 0.000000 -0.000001 -0.000001 0.000000 -0.000001 -0.000001 0.000001 -0.000002 0.000001 -0.000001 -0.000001 -0.000001 0.000000 -0.000001 -0.000001 0.000001 -0.000002 0.000001 -0.000001 -0.000001 -0.000002 0.000000 -0.000001 -0.000002 0.000000 0.000000 -0.000003 -0.000000 
-0.509305 79.527306 -1.576766 -8.263325 -41.670421 -4.502621 -0.000000 -0.000000 -0.000000 -29.933123 41.596176 28.435985 24.870474 3.488580 -0.714418 2.280931 1.312181 -2.158133 -0.000000 0.000001 -0.000000 -0.000000 0.000001 -0.000000 0.000000 0.000001 -0.000000 -6.361298 6.316554 -5.466945 33.597742 0.839298 1.078427 -19.633478 -17.449235 4.607335 0.000000 -0.000003 -0.000000 0.000000 -0.000003 -0.000000 -0.000002 -0.000000 0.000001 10.564361 1.052632 -1.149446 14.709378 0.272254 -0.948446 14.707441 0.229109 -0.931132 -1.043395 6.651698 2.084806 -6.386745 23.631258 5.523883 0.000002 0.000001 -0.000003 0.000002 0.000001 -0.000003 0.000002 0.000001 -0.000003 -30.996993 -3.592059 2.194077 -43.457809 0.328388 -63.687150 -0.000010 -72.729575 -0.000022 -120.048224 -5.019006 28.459114 4.699959 9.569103 2.988723 19.433205 -1.493064 7.397437 -0.000001 -0.000001 -0.000001 -0.214093 3.911506 -36.455902 2.932921 5.073612 -60.040348 0.000001 0.000001 -0.000003 0.407403 5.504478 -52.384115 3.280229 5.257782 -63.896495 0.000002 -0.000001 0.000000 -0.068303 5.747903 -61.169412 4.047556 5.567087 -72.017918 -0.000000 -0.000001 -0.000001 -6.555855 4.576768 -72.561915 3.300348 5.267578 -64.115744 -0.000003 -0.000004 -0.000001 -0.000001 0.000003 -0.000001 -34.552230 -8.155197 -10.554028 -50.470529 56.018271 97.369100 -0.000012 98.051115 -0.000023 -45.356356 -21.461160 -17.570569 2.257907 -2.300715 12.759306 18.889638 -16.579871 -17.877067 -0.000000 0.000000 0.000001 -0.719712 3.545557 7.420658 0.692122 -2.444813 31.608845 -0.000001 0.000000 0.000000 3.568319 -7.168211 54.793622 6.284348 -4.364231 110.470797 0.000002 0.000001 -0.000002 -2.599509 -3.276060 58.576590 5.444413 -4.590289 99.742543 -0.000001 0.000001 -0.000003 -3.022966 -3.743339 64.384669 3.946133 -4.602697 81.208340 0.000001 -0.000001 0.000004 0.000001 -0.000000 0.000000 -0.000000 -0.000002 0.000001 -0.000000 -0.000002 0.000001 -0.000000 -0.000002 0.000001 -0.000000 -0.000002 0.000001 -0.000000 -0.000002 0.000001 -0.000002 -0.000002 0.000001 -0.000000 -0.000002 0.000001 -0.000000 -0.000002 0.000001 -0.000002 -0.000002 0.000001 -0.000000 0.000001 0.000000 -0.000000 0.000001 0.000000 -0.000000 -0.000000 -0.000000 
